<svg xmlns="http://www.w3.org/2000/svg" xmlns:xlink="http://www.w3.org/1999/xlink" version="1.1" id="Capa_1" x="0px" y="0px" viewBox="0 0 478.20001220703125 478.20001220703125" style="enable-background:new 0 0 478.2 478.2;" xml:space="preserve" width="100%" height="100%" ><rect id="svgEditorBackground" x="0" y="0" width="478.20001220703125" height="478.20001220703125" style="fill:none;stroke:none;"/><defs id="svgEditorDefs"><linearGradient gradientUnits="objectBoundingBox" id="lgrd2-black-white" spreadMethod="pad" x1="0%" x2="100%" y1="0%" y2="100%"><stop offset="0%" stop-color="black"/><stop offset="100%" stop-color="white"/></linearGradient></defs>
<g>
	<path d="M457.575,325.1c9.800000000000011,-12.5,14.5,-25.899999999999977,13.899999999999977,-39.69999999999999c-0.6000000000000227,-15.199999999999989,-7.399999999999977,-27.100000000000023,-13,-34.400000000000006c6.5,-16.19999999999999,9,-41.70000000000002,-12.699999999999989,-61.5c-15.899999999999977,-14.5,-42.89999999999998,-21,-80.30000000000001,-19.19999999999999c-26.30000000000001,1.1999999999999886,-48.30000000000001,6.099999999999994,-49.19999999999999,6.300000000000011h-0.10000000000002274c-5,0.9000000000000057,-10.300000000000011,2,-15.699999999999989,3.1999999999999886c-0.39999999999997726,-6.400000000000006,0.6999999999999886,-22.30000000000001,12.5,-58.099999999999994c14,-42.599999999999994,13.199999999999989,-75.2,-2.6000000000000227,-97c-16.600000000000023,-22.9,-43.10000000000002,-24.7,-50.89999999999998,-24.7c-7.5,0,-14.400000000000006,3.1,-19.30000000000001,8.8c-11.099999999999994,12.899999999999999,-9.800000000000011,36.7,-8.400000000000006,47.7c-13.199999999999989,35.4,-50.20000000000002,122.19999999999999,-81.5,146.3c-0.5999999999999943,0.4000000000000057,-1.0999999999999943,0.9000000000000057,-1.5999999999999943,1.4000000000000057c-9.199999999999989,9.699999999999989,-15.400000000000006,20.19999999999999,-19.599999999999994,29.400000000000006c-5.900000000000006,-3.1999999999999886,-12.599999999999994,-5,-19.799999999999997,-5h-61c-23,0,-41.6,18.69999999999999,-41.6,41.60000000000002v162.5c0,23,18.7,41.60000000000002,41.6,41.60000000000002h61c8.900000000000006,0,17.200000000000003,-2.8000000000000114,24.000000000000014,-7.600000000000023l23.5,2.8000000000000114c3.5999999999999943,0.5,67.6,8.600000000000023,133.3,7.300000000000011c11.899999999999977,0.8999999999999773,23.100000000000023,1.3999999999999773,33.5,1.3999999999999773c17.899999999999977,0,33.5,-1.3999999999999773,46.5,-4.199999999999989c30.600000000000023,-6.5,51.5,-19.5,62.10000000000002,-38.60000000000002c8.100000000000023,-14.600000000000023,8.100000000000023,-29.100000000000023,6.800000000000011,-38.30000000000001c19.899999999999977,-18,23.399999999999977,-37.89999999999998,22.69999999999999,-51.89999999999998c-0.4000000000000341,-8.10000000000008,-2.1999999999999886,-15.000000000000114,-4.100000000000023,-20.10000000000008ZM48.275,447.3c-8.100000000000001,0,-14.600000000000001,-6.600000000000023,-14.600000000000001,-14.600000000000023v-162.59999999999997c0,-8.100000000000023,6.600000000000001,-14.599999999999994,14.600000000000001,-14.599999999999994h61.00000000000001c8.099999999999994,0,14.599999999999994,6.599999999999994,14.599999999999994,14.599999999999994v162.5c0,8.100000000000023,-6.599999999999994,14.600000000000023,-14.599999999999994,14.600000000000023h-61v0.0999999999999659ZM431.975,313.4c-4.199999999999989,4.399999999999977,-5,11.100000000000023,-1.8000000000000114,16.30000000000001c0,0.10000000000002274,4.100000000000023,7.100000000000023,4.600000000000023,16.69999999999999c0.6999999999999886,13.100000000000023,-5.600000000000023,24.69999999999999,-18.80000000000001,34.60000000000002c-4.699999999999989,3.6000000000000227,-6.600000000000023,9.800000000000011,-4.600000000000023,15.399999999999977c0,0.10000000000002274,4.300000000000011,13.300000000000011,-2.6999999999999886,25.80000000000001c-6.699999999999989,12,-21.600000000000023,20.600000000000023,-44.19999999999999,25.399999999999977c-18.100000000000023,3.8999999999999773,-42.69999999999999,4.600000000000023,-72.89999999999998,2.1999999999999886c-0.39999999999997726,0,-0.8999999999999773,0,-1.3999999999999773,0c-64.30000000000001,1.3999999999999773,-129.3,-7,-130,-7.100000000000023h-0.09999999999999432l-10.099999999999994,-1.1999999999999886c0.5999999999999943,-2.8000000000000114,0.9000000000000057,-5.800000000000011,0.9000000000000057,-8.800000000000011v-162.5999999999999c0,-4.300000000000011,-0.6999999999999886,-8.5,-1.9000000000000057,-12.399999999999977c1.8000000000000114,-6.699999999999989,6.800000000000011,-21.599999999999994,18.599999999999994,-34.30000000000001c44.900000000000006,-35.599999999999994,88.79999999999998,-155.7,90.70000000000002,-160.9c0.8000000000000114,-2.1000000000000014,1,-4.399999999999999,0.6000000000000227,-6.700000000000003c-1.6999999999999886,-11.200000000000003,-1.1000000000000227,-24.9,1.3000000000000114,-29c5.300000000000011,0.10000000000000142,19.600000000000023,1.6000000000000014,28.19999999999999,13.5c10.199999999999989,14.100000000000001,9.800000000000011,39.3,-1.1999999999999886,72.7c-16.80000000000001,50.900000000000006,-18.19999999999999,77.70000000000002,-4.899999999999977,89.5c6.600000000000023,5.900000000000006,15.399999999999977,6.199999999999989,21.80000000000001,3.9000000000000057c6.100000000000023,-1.4000000000000057,11.899999999999977,-2.5999999999999943,17.399999999999977,-3.5c0.39999999999997726,-0.09999999999999432,0.8999999999999773,-0.19999999999998863,1.3000000000000114,-0.30000000000001137c30.69999999999999,-6.699999999999989,85.69999999999999,-10.800000000000011,104.80000000000001,6.599999999999994c16.19999999999999,14.800000000000011,4.699999999999989,34.400000000000006,3.3999999999999773,36.5c-3.6999999999999886,5.599999999999994,-2.6000000000000227,12.900000000000006,2.3999999999999773,17.400000000000006c0.10000000000002274,0.10000000000002274,10.600000000000023,10,11.100000000000023,23.30000000000001c0.3999999999998636,8.899999999999977,-3.800000000000125,17.999999999999943,-12.500000000000114,26.999999999999943Z" style="" transform="matrix(-1 -0.000721874 0.000721874 -1 478.028 478.372)"/>
</g>
<g>
</g>
<g>
</g>
<g>
</g>
<g>
</g>
<g>
</g>
<g>
</g>
<g>
</g>
<g>
</g>
<g>
</g>
<g>
</g>
<g>
</g>
<g>
</g>
<g>
</g>
<g>
</g>
<g>
</g>
</svg>