<svg width="478.20001220703125" height="478.20001220703125" xmlns="http://www.w3.org/2000/svg">

 <g>
  <title>background</title>
  <rect fill="none" id="canvas_background" height="402" width="582" y="-1" x="-1"/>
 </g>
 <g>
  <title>Layer 1</title>
  <rect fill="none" height="478.200012" width="478.200012" id="svgEditorBackground"/>
  <rect stroke="null" id="svg_20" height="205.000001" width="383.000016" y="24.950005" x="65.600006" stroke-opacity="null" stroke-width="null" fill="#ff2a00"/>
  <ellipse stroke="null" ry="103.499999" rx="63.000003" id="svg_25" cy="187.450005" cx="84.600009" fill-opacity="null" stroke-opacity="null" stroke-width="null" fill="#ff2a00"/>
  <ellipse stroke="null" transform="rotate(-5.490350246429443 188.75843811035136,251.09835815429696) " ry="38.5" rx="145.175292" id="svg_30" cy="251.098361" cx="188.758438" fill-opacity="null" stroke-opacity="null" stroke-width="null" fill="#ff2a00"/>
  <ellipse stroke="null" transform="rotate(29.3577938079834 244.69818115234358,291.02294921875006) " ry="114.713274" rx="38.684148" id="svg_33" cy="291.022941" cx="244.698188" fill-opacity="null" stroke-opacity="null" stroke-width="null" fill="#ff2a00"/>
  <rect stroke="null" transform="rotate(3.785412549972534 211.90237426757616,402.4369506835938) " id="svg_35" height="106.986911" width="63" y="348.943475" x="180.402378" fill-opacity="null" stroke-opacity="null" stroke-width="null" fill="#ff2a00"/>
  <g id="svg_1">
   <path id="svg_2" d="m20.687681,152.941689c-9.809023,12.492926 -14.518697,25.889533 -13.928658,39.689966c0.589028,15.200433 7.380437,27.105342 12.975168,34.409384c-6.511694,16.195308 -9.030102,41.693503 12.655605,61.509168c15.889533,14.511478 42.884841,21.030968 80.28614,19.257966c26.300866,-1.181015 48.304403,-6.065133 49.204548,-6.264484l0.1,0.000072c5.00065,-0.896391 10.301444,-1.992565 15.70231,-3.188667c0.39538,6.400289 -0.716098,22.299495 -12.541941,58.090977c-14.030752,42.589894 -13.254285,75.190471 2.529978,97.001877c16.583469,22.911983 43.08217,24.731113 50.88217,24.736743c7.5,0.005414 14.402238,-3.089605 19.306352,-8.786068c11.109312,-12.891987 9.826493,-36.692926 8.434433,-47.693936c13.225554,-35.390471 50.288213,-122.163762 81.60561,-146.241167c0.600289,-0.399567 1.10065,-0.899206 1.601011,-1.398845c9.207002,-9.693359 15.414582,-20.188883 19.621223,-29.385851c5.89769,3.204259 12.596391,5.009096 19.796391,5.014293l61,0.044034c23,0.016603 41.613499,-18.66997 41.63003,-41.56997l0.117305,-162.5c0.016603,-23 -18.66997,-41.613499 -41.56997,-41.63003l-61,-0.044034c-8.9,-0.006425 -17.202021,2.787584 -24.005486,7.582675l-23.497979,-2.816964c-3.599639,-0.502599 -67.593792,-8.648799 -133.29473,-7.396226c-11.89935,-0.90859 -23.098989,-1.416675 -33.498989,-1.424183c-17.9,-0.012922 -33.501011,1.375817 -46.503032,4.166433c-30.604692,6.477911 -51.514077,19.462823 -62.127864,38.555172c-8.110539,14.594153 -8.121007,29.094153 -6.827648,38.295091c-19.912994,17.985635 -23.427359,37.883108 -22.737465,51.883613c0.394153,8.100289 2.189172,15.001588 4.08549,20.10296zm409.388213,-121.904537c8.1,0.005847 14.595236,6.610539 14.589461,14.610539l-0.117377,162.6c-0.005847,8.1 -6.610539,14.595236 -14.610539,14.589461l-61,-0.044034c-8.1,-0.005847 -14.595236,-6.610539 -14.589461,-14.610539l0.117305,-162.5c0.005847,-8.1 6.610539,-14.595236 14.610539,-14.589461l61,0.044034l0.000072,-0.1zm-383.796659,133.623017c4.203176,-4.396968 5.008013,-11.096391 1.811767,-16.298701c0.000072,-0.1 -4.094875,-7.10296 -4.587945,-16.703321c-0.690543,-13.100505 5.61783,-24.695958 18.824977,-34.586429c4.702599,-3.596607 6.607074,-9.795236 4.611117,-15.396679c0.000072,-0.1 -4.290399,-13.303104 2.718624,-25.798051c6.708662,-11.995163 21.614871,-20.584408 44.218336,-25.368093c18.102815,-3.886934 42.703321,-4.569176 72.901588,-2.147375c0.4,0.000289 0.9,0.00065 1.4,0.001011c64.301011,-1.353584 129.294947,7.093338 129.994875,7.193844l0.1,0.000072l10.099134,1.207291c-0.602021,2.799567 -0.904187,5.79935 -0.906352,8.79935l-0.117377,162.6c-0.003104,4.3 0.693864,8.500505 1.891049,12.401372c-1.804837,6.698701 -6.815592,21.595091 -18.62476,34.286573c-44.925699,35.567588 -88.912396,155.635898 -90.81615,160.834526c-0.801516,2.099423 -1.003176,4.399278 -0.604837,6.699567c1.691915,11.201227 1.082025,24.900794 -1.320934,28.999062c-5.299928,-0.103826 -19.598845,-1.614149 -28.190255,-13.520357c-10.189822,-14.107363 -9.77163,-39.307074 1.25248,-72.699134c16.836743,-50.887873 18.25609,-77.686862 4.964608,-89.496463c-6.595741,-5.904764 -15.395524,-6.211117 -21.797185,-3.915737c-6.101011,1.395597 -11.901877,2.59141 -17.402527,3.487439c-0.400072,0.099711 -0.900144,0.19935 -1.300217,0.299062c-30.704837,6.677838 -85.707796,10.738135 -104.795236,-6.675652c-16.189316,-14.811694 -4.675168,-34.403393 -3.373652,-36.502454c3.704042,-5.597329 2.609312,-12.898123 -2.387439,-17.401732c-0.099928,-0.100072 -10.592781,-10.007652 -11.08318,-23.308013c-0.393575,-8.900289 3.812994,-17.997257 12.519491,-26.990977z"/>
  </g>
  <g id="svg_3"/>
  <g id="svg_4"/>
  <g id="svg_5"/>
  <g id="svg_6"/>
  <g id="svg_7"/>
  <g id="svg_8"/>
  <g id="svg_9"/>
  <g id="svg_10"/>
  <g id="svg_11"/>
  <g id="svg_12"/>
  <g id="svg_13"/>
  <g id="svg_14"/>
  <g id="svg_15"/>
  <g id="svg_16"/>
  <g id="svg_17"/>
 </g>
</svg>