<svg width="478.2" height="478.2" xmlns="http://www.w3.org/2000/svg">

 <g>
  <title>background</title>
  <rect fill="none" id="canvas_background" height="402" width="582" y="-1" x="-1"/>
 </g>
 <g>
  <title>Layer 1</title>
  <rect stroke="#000" id="svg_19" height="202.000006" width="386.99998" y="250.949993" x="27.600019" fill-opacity="null" stroke-opacity="null" stroke-width="0" fill="#00ff00"/>
  <rect stroke="#000" id="svg_20" height="168.999996" width="296.000001" y="215.949999" x="149.600006" fill-opacity="null" stroke-opacity="null" stroke-width="0" fill="#00ff00"/>
  <rect id="svg_22" height="52" width="260" y="193.949998" x="177.600006" fill-opacity="null" stroke-opacity="null" stroke-width="0" stroke="#000" fill="#00ff00"/>
  <rect id="svg_23" height="295" width="53" y="21.949998" x="244.600006" fill-opacity="null" stroke-opacity="null" stroke-width="0" stroke="#000" fill="#00ff00"/>
  <ellipse stroke="#000" transform="rotate(21.725221633911133 229.14228820800798,174.18017578124991) " ry="101" rx="28.026043" id="svg_25" cy="174.180176" cx="229.142283" fill-opacity="null" stroke-opacity="null" stroke-width="0" fill="#00ff00"/>
  <g id="svg_1">
   <path id="svg_2" d="m457.575,325.1c9.8,-12.5 14.5,-25.9 13.9,-39.7c-0.6,-15.2 -7.4,-27.1 -13,-34.4c6.5,-16.2 9,-41.7 -12.7,-61.5c-15.9,-14.5 -42.9,-21 -80.3,-19.2c-26.3,1.2 -48.3,6.1 -49.2,6.3l-0.1,0c-5,0.9 -10.3,2 -15.7,3.2c-0.4,-6.4 0.7,-22.3 12.5,-58.1c14,-42.6 13.2,-75.2 -2.6,-97c-16.6,-22.9 -43.1,-24.7 -50.9,-24.7c-7.5,0 -14.4,3.1 -19.3,8.8c-11.1,12.9 -9.8,36.7 -8.4,47.7c-13.2,35.4 -50.2,122.2 -81.5,146.3c-0.6,0.4 -1.1,0.9 -1.6,1.4c-9.2,9.7 -15.4,20.2 -19.6,29.4c-5.9,-3.2 -12.6,-5 -19.8,-5l-61,0c-23,0 -41.6,18.7 -41.6,41.6l0,162.5c0,23 18.7,41.6 41.6,41.6l61,0c8.9,0 17.2,-2.8 24,-7.6l23.5,2.8c3.6,0.5 67.6,8.6 133.3,7.3c11.9,0.9 23.1,1.4 33.5,1.4c17.9,0 33.5,-1.4 46.5,-4.2c30.6,-6.5 51.5,-19.5 62.1,-38.6c8.1,-14.6 8.1,-29.1 6.8,-38.3c19.9,-18 23.4,-37.9 22.7,-51.9c-0.4,-8.1 -2.2,-15 -4.1,-20.1zm-409.3,122.2c-8.1,0 -14.6,-6.6 -14.6,-14.6l0,-162.6c0,-8.1 6.6,-14.6 14.6,-14.6l61,0c8.1,0 14.6,6.6 14.6,14.6l0,162.5c0,8.1 -6.6,14.6 -14.6,14.6l-61,0l0,0.1zm383.7,-133.9c-4.2,4.4 -5,11.1 -1.8,16.3c0,0.1 4.1,7.1 4.6,16.7c0.7,13.1 -5.6,24.7 -18.8,34.6c-4.7,3.6 -6.6,9.8 -4.6,15.4c0,0.1 4.3,13.3 -2.7,25.8c-6.7,12 -21.6,20.6 -44.2,25.4c-18.1,3.9 -42.7,4.6 -72.9,2.2c-0.4,0 -0.9,0 -1.4,0c-64.3,1.4 -129.3,-7 -130,-7.1l-0.1,0l-10.1,-1.2c0.6,-2.8 0.9,-5.8 0.9,-8.8l0,-162.6c0,-4.3 -0.7,-8.5 -1.9,-12.4c1.8,-6.7 6.8,-21.6 18.6,-34.3c44.9,-35.6 88.8,-155.7 90.7,-160.9c0.8,-2.1 1,-4.4 0.6,-6.7c-1.7,-11.2 -1.1,-24.9 1.3,-29c5.3,0.1 19.6,1.6 28.2,13.5c10.2,14.1 9.8,39.3 -1.2,72.7c-16.8,50.9 -18.2,77.7 -4.9,89.5c6.6,5.9 15.4,6.2 21.8,3.9c6.1,-1.4 11.9,-2.6 17.4,-3.5c0.4,-0.1 0.9,-0.2 1.3,-0.3c30.7,-6.7 85.7,-10.8 104.8,6.6c16.2,14.8 4.7,34.4 3.4,36.5c-3.7,5.6 -2.6,12.9 2.4,17.4c0.1,0.1 10.6,10 11.1,23.3c0.4,8.9 -3.8,18 -12.5,27z"/>
  </g>
  <g id="svg_3"/>
  <g id="svg_4"/>
  <g id="svg_5"/>
  <g id="svg_6"/>
  <g id="svg_7"/>
  <g id="svg_8"/>
  <g id="svg_9"/>
  <g id="svg_10"/>
  <g id="svg_11"/>
  <g id="svg_12"/>
  <g id="svg_13"/>
  <g id="svg_14"/>
  <g id="svg_15"/>
  <g id="svg_16"/>
  <g id="svg_17"/>
 </g>
</svg>